<?xml version="1.0" encoding="utf-8"?>
<!-- Generator: Adobe Illustrator 26.0.3, SVG Export Plug-In . SVG Version: 6.00 Build 0)  -->
<svg version="1.1" id="Warstwa_1" xmlns="http://www.w3.org/2000/svg" xmlns:xlink="http://www.w3.org/1999/xlink" x="0px" y="0px"
	 viewBox="0 0 353.48 236.87" style="enable-background:new 0 0 353.48 236.87;" xml:space="preserve">
<style type="text/css">
	.st0{fill:none;stroke:#000000;stroke-width:3;stroke-linecap:round;stroke-miterlimit:10;}
</style>
<g>
	<g>
		<path class="st0" d="M56.02,130.77l24.33-38.83c0.87-1.12,3.56-1.12,4.43,0l24.33,38.83"/>
		<polyline class="st0" points="109.56,130.77 109.56,144.77 55.56,144.77 55.56,130.77 		"/>
		<line class="st0" x1="82.56" y1="91.77" x2="82.56" y2="122.77"/>
		<path class="st0" d="M96.18,143.77c-12-3-13.59-19.39-13.59-19.39c-0.09-0.13,0.07-0.29,0.2-0.2l17.39,11.59
			C100.18,135.77,97.18,141.77,96.18,143.77z"/>
		<path class="st0" d="M69.56,143.77c12-3,13.59-19.39,13.59-19.39c0.09-0.13-0.07-0.29-0.2-0.2l-17.39,11.59
			C65.56,135.77,68.56,141.77,69.56,143.77z"/>
		<line class="st0" x1="119.56" y1="137.77" x2="119.56" y2="145.77"/>
		<path class="st0" d="M119.56,140.77c0,0-7,1.38-10-4.81"/>
		<line class="st0" x1="45.56" y1="137.77" x2="45.56" y2="145.77"/>
		<path class="st0" d="M45.56,140.77c0,0,7,1.38,10-4.81"/>
	</g>
	<g>
		<path class="st0" d="M199.73,109.94v27.08c0,7.96-6.94,14.41-15.5,14.41h0c-8.56,0-15.5-6.45-15.5-14.41V99.85
			c0-7.96,6.94-14.41,15.5-14.41h0c8.56,0,15.5,6.45,15.5,14.41v2.06"/>
		<path class="st0" d="M193.07,108.94c-1.39,3.51-4.82,6-8.83,6c-5.25,0-9.5-4.25-9.5-9.5s4.25-9.5,9.5-9.5c4.01,0,7.44,2.48,8.83,6
			"/>
		<path class="st0" d="M189.73,130.43c0-3.04-2.46-5.5-5.5-5.5s-5.5,2.46-5.5,5.5c0,2.14,1.22,3.98,3,4.89v5.11
			c0,1.38,1.12,2.5,2.5,2.5s2.5-1.12,2.5-2.5v-5.11C188.51,134.42,189.73,132.57,189.73,130.43z"/>
		<path class="st0" d="M220.23,108.93h-36c-1.93,0-3.5-1.57-3.5-3.5v0c0-1.92,1.57-3.5,3.5-3.5h36c1.93,0,3.5,1.57,3.5,3.5v0
			C223.73,107.36,222.16,108.93,220.23,108.93z"/>
	</g>
	<g>
		<line class="st0" x1="307.92" y1="106.93" x2="263.2" y2="106.93"/>
		<path class="st0" d="M303.59,106.93c0,11.34-9.19,20.54-20.54,20.54s-20.54-9.19-20.54-20.54"/>
		<path class="st0" d="M297.32,111.84c-2.09,5.86-7.68,10.05-14.26,10.05"/>
		<circle class="st0" cx="271.92" cy="141.93" r="6"/>
		<line class="st0" x1="277.92" y1="126.79" x2="273.92" y2="135.93"/>
		<line class="st0" x1="288.92" y1="126.79" x2="297.92" y2="147.93"/>
		<line class="st0" x1="278.92" y1="141.93" x2="294.92" y2="141.93"/>
		<path class="st0" d="M270.92,101.93c5-2,7-8,6.54-12.39l0.06-0.61l2.48,2.05c3.72,3.07,5.64,5.99,5.05,10.95v0"/>
		<path class="st0" d="M285.05,98.93l4.71-7c0,0,5.65,4,5.65,10"/>
	</g>
</g>
</svg>
