<?xml version="1.0" encoding="utf-8"?>
<!-- Generator: Adobe Illustrator 26.0.3, SVG Export Plug-In . SVG Version: 6.00 Build 0)  -->
<svg version="1.1" id="Warstwa_1" xmlns="http://www.w3.org/2000/svg" xmlns:xlink="http://www.w3.org/1999/xlink" x="0px" y="0px"
	 viewBox="0 0 353.48 236.87" style="enable-background:new 0 0 353.48 236.87;" xml:space="preserve">
<g>
	<g>
		<g>
			<g>
				<path d="M61.04,112.23c1.11-1.25,2.02-2.51,3.16-3.58c3.5-3.3,7.64-4.96,12.48-4.92c2.66,0.02,5.28,0.21,7.84,0.95
					c5.86,1.69,9.26,5.73,10.89,11.45c1.22,4.29,1.44,8.7,1.45,13.12c0.02,9.32-0.03,18.65-0.01,27.97c0,0.87-0.24,1.1-1.1,1.1
					c-4.8-0.04-9.61-0.04-14.41,0c-0.85,0.01-1.03-0.25-1.03-1.05c0.03-8.87,0.03-17.74,0-26.62c-0.01-2.22-0.15-4.45-0.77-6.61
					c-1.15-3.98-4-6.01-8.17-5.79c-5.7,0.3-8.66,3.12-9.39,8.91c-0.17,1.38-0.26,2.77-0.25,4.16c0.01,8.63-0.01,17.26,0.02,25.89
					c0,0.86-0.21,1.11-1.09,1.11c-4.84-0.04-9.68-0.04-14.52,0c-0.78,0.01-1-0.2-1-0.99c0.02-17.08,0.02-34.17,0-51.25
					c0-0.85,0.28-1.04,1.08-1.04c4.59,0.03,9.19,0.04,13.78,0c0.85-0.01,1.06,0.27,1.05,1.07
					C61.01,108.15,61.04,110.19,61.04,112.23z"/>
				<path d="M34.72,131.76c0,8.45-0.01,16.9,0.02,25.35c0,0.94-0.23,1.22-1.2,1.21c-4.8-0.05-9.6-0.04-14.41-0.01
					c-0.77,0.01-1-0.19-1-0.98c0.02-17.11,0.02-34.22,0-51.34c0-0.71,0.17-0.96,0.92-0.96c4.87,0.03,9.74,0.04,14.61-0.01
					c0.94-0.01,1.06,0.35,1.06,1.16C34.72,114.72,34.72,123.24,34.72,131.76z"/>
				<path d="M36.05,88.09c0.01,5.31-4.3,9.63-9.6,9.63c-5.23,0-9.57-4.32-9.59-9.55c-0.02-5.28,4.32-9.63,9.61-9.63
					C31.72,78.55,36.04,82.86,36.05,88.09z"/>
			</g>
		</g>
	</g>
	<g>
		<g>
			<path d="M167.98,83.59c11.35,0,12.69,0.04,17.17,0.25c4.14,0.19,6.39,0.88,7.89,1.46c1.98,0.77,3.4,1.69,4.89,3.18
				c1.49,1.49,2.41,2.9,3.18,4.89c0.58,1.5,1.27,3.75,1.46,7.89c0.2,4.48,0.25,5.83,0.25,17.17s-0.04,12.69-0.25,17.17
				c-0.19,4.14-0.88,6.39-1.46,7.89c-0.77,1.98-1.69,3.4-3.18,4.89c-1.49,1.49-2.9,2.41-4.89,3.18c-1.5,0.58-3.75,1.27-7.89,1.46
				c-4.48,0.2-5.82,0.25-17.17,0.25c-11.35,0-12.69-0.04-17.17-0.25c-4.14-0.19-6.39-0.88-7.89-1.46c-1.98-0.77-3.4-1.69-4.89-3.18
				c-1.49-1.49-2.41-2.9-3.18-4.89c-0.58-1.5-1.27-3.75-1.46-7.89c-0.2-4.48-0.25-5.83-0.25-17.17s0.04-12.69,0.25-17.17
				c0.19-4.14,0.88-6.39,1.46-7.89c0.77-1.98,1.69-3.4,3.18-4.89c1.49-1.49,2.9-2.41,4.89-3.18c1.5-0.58,3.75-1.27,7.89-1.46
				C155.29,83.64,156.63,83.59,167.98,83.59 M167.98,75.93c-11.54,0-12.99,0.05-17.52,0.26c-4.52,0.21-7.61,0.92-10.32,1.98
				c-2.79,1.09-5.16,2.54-7.53,4.9c-2.36,2.36-3.82,4.73-4.9,7.53c-1.05,2.7-1.77,5.79-1.98,10.32c-0.21,4.53-0.26,5.98-0.26,17.52
				c0,11.54,0.05,12.99,0.26,17.52c0.21,4.52,0.92,7.61,1.98,10.32c1.09,2.79,2.54,5.16,4.9,7.53c2.36,2.36,4.73,3.82,7.53,4.9
				c2.7,1.05,5.79,1.77,10.32,1.98c4.53,0.21,5.98,0.26,17.52,0.26c11.54,0,12.99-0.05,17.52-0.26c4.52-0.21,7.61-0.92,10.32-1.98
				c2.79-1.09,5.16-2.54,7.53-4.9c2.36-2.36,3.82-4.73,4.9-7.53c1.05-2.7,1.77-5.79,1.98-10.32c0.21-4.53,0.26-5.98,0.26-17.52
				s-0.05-12.99-0.26-17.52c-0.21-4.52-0.92-7.61-1.98-10.32c-1.09-2.79-2.54-5.16-4.9-7.53c-2.36-2.36-4.73-3.82-7.53-4.9
				c-2.7-1.05-5.79-1.77-10.32-1.98C180.97,75.98,179.52,75.93,167.98,75.93L167.98,75.93z"/>
			<path d="M167.98,96.61c-12.05,0-21.82,9.77-21.82,21.82s9.77,21.82,21.82,21.82c12.05,0,21.82-9.77,21.82-21.82
				S180.04,96.61,167.98,96.61z M167.98,132.6c-7.82,0-14.17-6.34-14.17-14.17s6.34-14.17,14.17-14.17s14.17,6.34,14.17,14.17
				S175.81,132.6,167.98,132.6z"/>
			<circle cx="190.67" cy="95.75" r="5.1"/>
		</g>
	</g>
	<g>
		<path d="M336.61,119.14c0-5.44-4.41-9.84-9.84-9.84c-2.65,0-5.06,1.06-6.83,2.76c-6.73-4.86-16-7.99-26.33-8.35l4.48-21.1
			l14.65,3.11c0.18,3.72,3.23,6.7,7,6.7c3.88,0,7.03-3.15,7.03-7.03s-3.15-7.03-7.03-7.03c-2.76,0-5.13,1.61-6.28,3.92l-16.36-3.48
			c-0.46-0.1-0.93-0.01-1.32,0.25c-0.39,0.25-0.67,0.65-0.76,1.11l-5.01,23.54c-10.48,0.29-19.9,3.43-26.71,8.34
			c-1.77-1.7-4.16-2.74-6.81-2.74c-5.44,0-9.84,4.41-9.84,9.84c0,4,2.39,7.44,5.82,8.98c-0.15,0.98-0.23,1.97-0.23,2.98
			c0,15.14,17.63,27.42,39.38,27.42c21.75,0,39.38-12.28,39.38-27.42c0-1-0.08-1.99-0.23-2.96
			C334.2,126.6,336.61,123.15,336.61,119.14z M269.12,126.17c0-3.88,3.16-7.03,7.03-7.03c3.88,0,7.03,3.15,7.03,7.03
			c0,3.88-3.15,7.03-7.03,7.03C272.28,133.2,269.12,130.05,269.12,126.17z M308.33,144.75c-4.8,4.79-13.99,5.16-16.7,5.16
			c-2.7,0-11.9-0.37-16.69-5.17c-0.71-0.71-0.71-1.87,0-2.58c0.71-0.71,1.87-0.71,2.58,0c3.02,3.02,9.5,4.1,14.12,4.1
			c4.62,0,11.09-1.07,14.12-4.1c0.71-0.71,1.87-0.71,2.58,0C309.04,142.88,309.04,144.04,308.33,144.75z M307.09,133.2
			c-3.88,0-7.03-3.15-7.03-7.03c0-3.88,3.15-7.03,7.03-7.03c3.88,0,7.03,3.16,7.03,7.03C314.12,130.05,310.97,133.2,307.09,133.2z"
			/>
	</g>
</g>
</svg>
